<svg width="45" height="54" viewBox="0 0 45 54" fill="none" xmlns="http://www.w3.org/2000/svg">
<path fill-rule="evenodd" clip-rule="evenodd" d="M22.6753 34.7067C28.9247 34.7067 33.9908 29.6406 33.9908 23.3912C33.9908 17.1419 28.9247 12.0757 22.6753 12.0757C16.426 12.0757 11.3599 17.1419 11.3599 23.3912C11.3599 29.6406 16.426 34.7067 22.6753 34.7067ZM22.6753 26.8729C20.7524 26.8729 19.1936 25.3141 19.1936 23.3912C19.1936 21.4683 20.7524 19.9095 22.6753 19.9095C24.5982 19.9095 26.157 21.4683 26.157 23.3912C26.157 25.3141 24.5982 26.8729 22.6753 26.8729ZM22.6753 27.7433C20.2717 27.7433 18.3232 25.7948 18.3232 23.3912C18.3232 20.9876 20.2717 19.0391 22.6753 19.0391C25.0789 19.0391 27.0274 20.9876 27.0274 23.3912C27.0274 25.7948 25.0789 27.7433 22.6753 27.7433Z" fill="url(#paint0_radial_66_679)"/>
<path fill-rule="evenodd" clip-rule="evenodd" d="M44.4368 22.8649C44.4369 22.8952 44.437 22.9256 44.437 22.9559C44.437 22.956 44.4369 22.956 44.4369 22.956V22.956C44.4368 22.956 44.4368 22.9561 44.4368 22.9561V50.8095C44.4368 52.492 43.0728 53.856 41.3903 53.856V53.856C39.7078 53.856 38.3438 52.492 38.3438 50.8095V22.9614C38.3438 22.9584 38.3414 22.956 38.3385 22.956V22.956C38.3355 22.956 38.3331 22.9536 38.3331 22.9507C38.3319 19.3524 37.1248 15.8583 34.9044 13.0266C32.683 10.1935 29.5756 8.18724 26.0794 7.32854C22.5831 6.46984 18.8999 6.80837 15.6188 8.28997C12.3376 9.77158 9.64804 12.3107 7.98021 15.5012C6.31239 18.6918 5.76263 22.3494 6.41887 25.8893C7.0751 29.4291 8.89942 32.6467 11.6001 35.0273C14.3007 37.408 17.7217 38.8143 21.3159 39.0213C23.8879 39.1695 26.4422 38.6974 28.7703 37.6639C30.3109 36.98 32.2059 37.2912 33.168 38.6752V38.6752C34.13 40.0592 33.795 41.9824 32.2922 42.7457C28.8085 44.5151 24.9017 45.3418 20.9649 45.1151C16.0074 44.8295 11.2888 42.8898 7.56378 39.6061C3.83874 36.3224 1.32244 31.8844 0.417292 27.0019C-0.487861 22.1193 0.270421 17.0743 2.57087 12.6735C4.87132 8.27279 8.58105 4.77058 13.1068 2.72699C17.6325 0.683392 22.7128 0.216462 27.5353 1.40087C32.3577 2.58528 36.6436 5.35261 39.7077 9.26029C42.4986 12.8196 44.1289 17.1377 44.3975 21.6318C44.3981 21.6422 44.4067 21.6504 44.4171 21.6504V21.6504C44.428 21.6504 44.4368 21.6592 44.4368 21.67V22.8649Z" fill="#D9D9D9"/>
<path fill-rule="evenodd" clip-rule="evenodd" d="M44.4368 22.8649C44.4369 22.8952 44.437 22.9256 44.437 22.9559C44.437 22.956 44.4369 22.956 44.4369 22.956V22.956C44.4368 22.956 44.4368 22.9561 44.4368 22.9561V50.8095C44.4368 52.492 43.0728 53.856 41.3903 53.856V53.856C39.7078 53.856 38.3438 52.492 38.3438 50.8095V22.9614C38.3438 22.9584 38.3414 22.956 38.3385 22.956V22.956C38.3355 22.956 38.3331 22.9536 38.3331 22.9507C38.3319 19.3524 37.1248 15.8583 34.9044 13.0266C32.683 10.1935 29.5756 8.18724 26.0794 7.32854C22.5831 6.46984 18.8999 6.80837 15.6188 8.28997C12.3376 9.77158 9.64804 12.3107 7.98021 15.5012C6.31239 18.6918 5.76263 22.3494 6.41887 25.8893C7.0751 29.4291 8.89942 32.6467 11.6001 35.0273C14.3007 37.408 17.7217 38.8143 21.3159 39.0213C23.8879 39.1695 26.4422 38.6974 28.7703 37.6639C30.3109 36.98 32.2059 37.2912 33.168 38.6752V38.6752C34.13 40.0592 33.795 41.9824 32.2922 42.7457C28.8085 44.5151 24.9017 45.3418 20.9649 45.1151C16.0074 44.8295 11.2888 42.8898 7.56378 39.6061C3.83874 36.3224 1.32244 31.8844 0.417292 27.0019C-0.487861 22.1193 0.270421 17.0743 2.57087 12.6735C4.87132 8.27279 8.58105 4.77058 13.1068 2.72699C17.6325 0.683392 22.7128 0.216462 27.5353 1.40087C32.3577 2.58528 36.6436 5.35261 39.7077 9.26029C42.4986 12.8196 44.1289 17.1377 44.3975 21.6318C44.3981 21.6422 44.4067 21.6504 44.4171 21.6504V21.6504C44.428 21.6504 44.4368 21.6592 44.4368 21.67V22.8649Z" fill="url(#paint1_linear_66_679)"/>
<defs>
<radialGradient id="paint0_radial_66_679" cx="0" cy="0" r="1" gradientUnits="userSpaceOnUse" gradientTransform="translate(33.5556 12.0757) rotate(135) scale(26.4657)">
<stop offset="0.204411" stop-color="#9F89E8"/>
<stop offset="1" stop-color="#774FFF"/>
</radialGradient>
<linearGradient id="paint1_linear_66_679" x1="51.6243" y1="-25.4094" x2="-13.8157" y2="13.0985" gradientUnits="userSpaceOnUse">
<stop offset="0.405214" stop-color="#9F89E8"/>
<stop offset="1" stop-color="#774FFF"/>
</linearGradient>
</defs>
</svg>
